<?xml version="1.0" standalone="no"?>
<!DOCTYPE svg PUBLIC "-//W3C//DTD SVG 1.1//EN" "http://www.w3.org/Graphics/SVG/1.1/DTD/svg11.dtd" >
<svg xmlns="http://www.w3.org/2000/svg">
<metadata></metadata>
<defs>
<font id="MirrorTextRegular" horiz-adv-x="1024" >
<font-face units-per-em="2048" ascent="1464" descent="-584" />
<missing-glyph horiz-adv-x="479" />
<glyph horiz-adv-x="0" />
<glyph horiz-adv-x="2048" />
<glyph unicode=" "  horiz-adv-x="479" />
<glyph unicode="&#x09;" horiz-adv-x="479" />
<glyph unicode="&#xa0;" horiz-adv-x="479" />
<glyph unicode="!" horiz-adv-x="522" d="M158 92.5q0 26.5 43 68.5t69.5 42t69.5 -42t43 -68.5t-42 -69.5t-70.5 -43t-70.5 43t-42 69.5zM172 1307h186l-28 -953l-131 33z" />
<glyph unicode="&#x22;" horiz-adv-x="604" d="M78 1307h145l-33 -445h-86zM379 1307h147l-30 -445h-86z" />
<glyph unicode="#" horiz-adv-x="790" d="M12 422v102h135l60 258h-137v103h161l97 422h116l-98 -422h209l96 422h115l-96 -422h108v-103h-133l-59 -258h135v-102h-160l-98 -422h-115l96 422h-206l-97 -422h-116l98 422h-111zM262 524h207l59 258h-206z" />
<glyph unicode="$" horiz-adv-x="937" d="M84 80l35 143q137 -106 309 -106q123 0 195.5 64.5t72.5 160.5q0 172 -250 262q-356 125 -356 379q0 137 87 230.5t226 113.5v182h103v-178q158 -6 266 -74l-33 -135q-121 72 -262 72q-109 0 -170 -58.5t-61 -138.5q0 -141 231 -229q377 -141 377 -414q0 -160 -97.5 -257 t-250.5 -115v-181h-103v176q-182 7 -319 103z" />
<glyph unicode="%" horiz-adv-x="1429" d="M74 1047q0 123 81 203.5t203 80.5q121 0 202 -80t81 -204q0 -127 -80 -207t-202.5 -80t-203.5 80t-81 207zM133 23l1075 1329l78 -66l-1073 -1329zM205 1047q0 -76 44 -121t109.5 -45t108.5 45t43 121q0 74 -43 116.5t-108.5 42.5t-109.5 -42.5t-44 -116.5zM782 262 q0 123 80 204t203 81t204 -81t81 -204q0 -127 -81 -206t-204 -79t-203 79t-80 206zM911 262q0 -76 44 -121t109.5 -45t110 45t44.5 121q0 74 -44.5 118t-110 44t-109.5 -44t-44 -118z" />
<glyph unicode="&#x26;" horiz-adv-x="1257" d="M84 324q0 123 63.5 210t192.5 160q-172 176 -172 320q0 141 97.5 229t232.5 88q139 0 241.5 -88t102.5 -229q0 -203 -258 -350l313 -316q96 129 143 289l107 -107q-53 -164 -146 -286l244 -244h-213l-131 131q-172 -154 -412 -154q-178 0 -291.5 101t-113.5 246zM244 332 q0 -92 72.5 -154.5t181.5 -62.5q164 0 297 121l-353 354q-98 -53 -148 -112.5t-50 -145.5zM319 1022q0 -59 37 -114.5t123 -139.5q211 117 211 244q0 78 -52 131t-140 53q-78 0 -128.5 -52t-50.5 -122z" />
<glyph unicode="'" horiz-adv-x="301" d="M78 1307h145l-33 -445h-86z" />
<glyph unicode="(" horiz-adv-x="485" d="M84 492q0 530 231 962l158 -35q-233 -428 -233 -925.5t225 -956.5l-166 39q-106 209 -160.5 422t-54.5 494z" />
<glyph unicode=")" horiz-adv-x="485" d="M12 -428q236 432 236 926q0 489 -225 956l163 -41q106 -209 160.5 -422t54.5 -493q0 -532 -231 -963z" />
<glyph unicode="*" horiz-adv-x="843" d="M55 1059l17 143l290 -110l-14 282l146 33l-17 -313l262 102l76 -127l-303 -82l180 -223l-98 -109l-174 263l-152 -238l-135 61l197 246z" />
<glyph unicode="+" horiz-adv-x="937" d="M86 500v135h309v293h150v-293h307v-135h-307v-293h-150v293h-309z" />
<glyph unicode="," horiz-adv-x="395" d="M84 92q0 29 43 71t69.5 42t70.5 -42t44 -71q0 -61 -41 -138t-102 -138l-59 10q61 88 79 168q-29 4 -66.5 39.5t-37.5 58.5z" />
<glyph unicode="-" horiz-adv-x="688" d="M86 561v133h518v-133h-518z" />
<glyph unicode="." horiz-adv-x="393" d="M84 92.5q0 26.5 43 68.5t69.5 42t69.5 -42t43 -68.5t-42 -69.5t-70.5 -43t-70.5 43t-42 69.5z" />
<glyph unicode="/" horiz-adv-x="958" d="M-74 -268l838 1640l117 -61l-836 -1641z" />
<glyph unicode="0" horiz-adv-x="1044" d="M84 655q0 322 126 499t312 177q184 0 311.5 -177t127.5 -499q0 -324 -127 -501t-312 -177q-186 0 -312 177t-126 501zM244 655q0 -266 79.5 -401t198.5 -135q117 0 198 135t81 401q0 262 -81 398.5t-198 136.5q-119 0 -198.5 -135.5t-79.5 -399.5z" />
<glyph unicode="1" horiz-adv-x="538" d="M12 1155l31 133l358 35v-1323h-157v1180z" />
<glyph unicode="2" horiz-adv-x="929" d="M74 0v33q553 612 553 903q0 129 -66.5 195.5t-173.5 66.5q-141 0 -254 -78l-37 133q123 78 289 78q178 0 286.5 -104.5t108.5 -294.5q0 -168 -120.5 -364.5t-335.5 -436.5h522v-131h-772z" />
<glyph unicode="3" horiz-adv-x="888" d="M90 182q109 -70 242 -69.5t226 78t93 215.5q0 111 -83 190.5t-199 79.5q-33 0 -52 -4l-32 127q117 20 189.5 81.5t72.5 141.5q0 78 -53.5 127t-143.5 49q-111 0 -213 -61l-31 127q113 66 248 65q152 0 248 -83t96 -210q0 -100 -57 -170.5t-143 -93.5q125 -18 215 -121.5 t90 -261.5q0 -180 -124 -294.5t-339 -114.5q-125 0 -231 51z" />
<glyph unicode="4" horiz-adv-x="974" d="M12 489l623 818h106v-815h150v-130h-150v-362h-157v362h-543zM178 492h406v358q0 115 2 178l-4 2q-25 -39 -133 -182z" />
<glyph unicode="5" horiz-adv-x="931" d="M127 188q125 -78 264 -77q127 0 215 78.5t88 205.5q0 129 -86 210t-211 81t-231 -41l20 662h559l-30 -129h-383l-10 -371q55 12 88 12q186 0 312 -116.5t126 -309.5q0 -176 -120 -296t-329 -120q-154 0 -254 60z" />
<glyph unicode="6" horiz-adv-x="1017" d="M84 442q0 260 170 513t432 391l158 -74q-410 -211 -543 -559q88 102 227 102q182 0 299 -118.5t117 -299.5q0 -182 -119.5 -301t-304 -119t-310.5 125t-126 340zM246 403q0 -123 82 -207.5t194.5 -84.5t187 77.5t74.5 200.5q0 121 -74.5 201t-191.5 80q-96 0 -170 -49.5 t-100 -153.5q-2 -21 -2 -64z" />
<glyph unicode="7" horiz-adv-x="917" d="M12 1171v136h858l-559 -1307h-170l504 1171h-633z" />
<glyph unicode="8" horiz-adv-x="1030" d="M84 358q0 133 85 227.5t189 129.5q-90 33 -153.5 110.5t-63.5 182.5q0 143 106.5 233t266.5 90t266.5 -90t106.5 -233q0 -102 -63.5 -180t-151.5 -109q100 -31 187 -128t87 -233q0 -174 -125 -277.5t-307 -103.5t-306 103.5t-124 277.5zM233 362q0 -109 81 -177t194 -68 q115 0 196.5 68.5t81.5 176.5q0 98 -85 174t-199 105q-111 -31 -190 -105t-79 -174zM297 1004q0 -74 61.5 -134.5t163.5 -89.5q98 29 155.5 89.5t57.5 134.5q0 84 -63.5 139t-155.5 55q-90 0 -154.5 -55t-64.5 -139z" />
<glyph unicode="9" horiz-adv-x="1017" d="M74 913.5q0 180.5 120.5 299t305 118.5t309.5 -124t125 -339q0 -260 -170 -513t-432 -390l-158 72q416 215 545 561q-88 -102 -230 -102q-182 0 -298.5 118.5t-116.5 299zM233 911q0 -121 75 -200.5t192 -79.5q96 0 169.5 50t100.5 155q2 20 2 59q0 123 -82 209 t-194.5 86t-187.5 -78t-75 -201z" />
<glyph unicode=":" horiz-adv-x="395" d="M84 92q0 27 43 70t70 43q29 0 71.5 -43t42.5 -70q0 -29 -43 -72t-71 -43q-27 0 -70 43t-43 72zM84 886.5q0 26.5 42 69.5t70.5 43t71.5 -42t43 -70.5t-43 -70.5t-71.5 -42t-70.5 43t-42 69.5z" />
<glyph unicode=";" horiz-adv-x="395" d="M84 92q0 29 43 71t69.5 42t70.5 -42t44 -71q0 -61 -41 -138t-102 -138l-59 10q61 88 79 168q-29 4 -66.5 39.5t-37.5 58.5zM84 886.5q0 26.5 42 69.5t70.5 43t71.5 -42t43 -70.5t-43 -70.5t-71.5 -42t-70.5 43t-42 69.5z" />
<glyph unicode="&#x3c;" horiz-adv-x="937" d="M86 475v187l766 251v-143l-639 -203l639 -202v-142z" />
<glyph unicode="=" horiz-adv-x="937" d="M86 324v135h766v-135h-766zM86 676v135h766v-135h-766z" />
<glyph unicode="&#x3e;" horiz-adv-x="937" d="M86 223v142l639 202l-639 203v143l766 -251v-187z" />
<glyph unicode="?" horiz-adv-x="765" d="M76 1260q111 72 258 71q156 0 255 -86t99 -235q0 -84 -40 -150.5t-134 -167.5q-92 -100 -92 -211q0 -80 10 -127l-143 33q-14 63 -15 109q0 176 121 297q66 66 95.5 115.5t29.5 115.5q0 63 -51 114.5t-133 51.5q-117 0 -227 -72zM252 92.5q0 26.5 43 68.5t70 42 q29 0 70.5 -42t41.5 -69q0 -29 -42 -70.5t-70.5 -41.5t-70.5 43t-42 69.5z" />
<glyph unicode="@" horiz-adv-x="1550" d="M84 659q0 297 206 484.5t488 187.5q281 0 484.5 -183t203.5 -468q0 -160 -90 -282t-243 -122q-59 0 -107.5 32t-60.5 95q-51 -127 -215 -127q-104 0 -171 62.5t-67 155.5q0 98 69.5 156.5t170.5 68.5l172 16v49q0 55 -38 89t-112 34q-100 0 -196 -59l-29 110 q98 63 231 64q123 0 200 -65.5t77 -182.5v-303q0 -90 78 -90q90 0 151.5 80t61.5 219q0 233 -170 386t-398 153q-233 0 -404 -155t-171 -409q0 -252 167 -406.5t390 -154.5q121 0 188 25l-12 -109q-57 -23 -182 -22q-272 0 -472 186t-200 485zM641 492q0 -43 33 -73t84 -30 q66 0 116 46t50 118v72l-146 -15q-137 -14 -137 -118z" />
<glyph unicode="A" horiz-adv-x="1249" d="M47 0l547 1325h61l547 -1325h-170l-145 352h-531l-143 -352h-166zM414 487h415l-143 361q-29 74 -61 180h-4q-16 -66 -64 -180z" />
<glyph unicode="B" horiz-adv-x="1050" d="M137 0v1307h342q143 0 252 -90.5t109 -243.5q0 -78 -37 -144.5t-96 -91.5q104 -25 182 -123t78 -221q0 -182 -126 -287.5t-294 -105.5h-410zM297 139h217q119 0 202 66.5t83 187.5q0 119 -84 186.5t-207 67.5h-211v-508zM297 782h160q92 0 153.5 49.5t61.5 141.5 t-61.5 143t-155.5 51h-158v-385z" />
<glyph unicode="C" horiz-adv-x="1236" d="M84 653.5q0 153.5 60.5 282.5t157.5 211t219 127t249 45q229 0 383 -86l-31 -143q-135 88 -334 88q-221 0 -381.5 -143.5t-160.5 -383.5q0 -242 159.5 -384t382.5 -142q205 0 342 80l-16 -150q-121 -67 -336 -67h-6q-129 0 -251 46t-220 128t-157.5 210t-59.5 281.5z" />
<glyph unicode="D" horiz-adv-x="1308" d="M137 0v1307h373q299 0 507 -176.5t208 -477.5t-208 -477t-507 -176h-373zM307 141h174q252 0 412 132.5t160 378t-160 377.5t-412 132h-174v-1020z" />
<glyph unicode="E" horiz-adv-x="915" d="M137 0v1307h692v-146h-524v-432h436v-145h-436v-439h598v-145h-766z" />
<glyph unicode="F" horiz-adv-x="858" d="M137 0v1307h709v-146h-541v-432h459v-145h-459v-584h-168z" />
<glyph unicode="G" horiz-adv-x="1386" d="M84 653q0 209 105.5 368t262 234.5t330.5 75.5q252 0 416 -102l-33 -150q-162 102 -364 103q-221 0 -384 -143.5t-163 -389.5t162 -388t387 -142q195 0 307 78v315h-324v135h484v-530q-180 -139 -477 -140q-182 0 -342 77t-263.5 234.5t-103.5 364.5z" />
<glyph unicode="H" horiz-adv-x="1323" d="M137 0v1307h168v-578h711v578h170v-1307h-170v584h-711v-584h-168z" />
<glyph unicode="I" horiz-adv-x="483" d="M158 0v1307h168v-1307h-168z" />
<glyph unicode="J" horiz-adv-x="483" d="M-164 -147q322 61 322 426v1028h168v-1045q0 -223 -113 -357t-268 -165z" />
<glyph unicode="K" horiz-adv-x="1087" d="M137 0v1307h168v-623h2l541 623h190l-559 -639l582 -668h-217l-537 621h-2v-621h-168z" />
<glyph unicode="L" horiz-adv-x="909" d="M137 0v1307h168v-1162h592v-145h-760z" />
<glyph unicode="M" horiz-adv-x="1665" d="M96 0l109 1307h106l353 -703q127 -254 167 -350h5q53 133 163 352l351 701h106l111 -1307h-160l-53 633q-14 178 -21 319h-4q-43 -100 -155 -325l-316 -635h-63l-320 635q-55 109 -151 321h-5q-6 -162 -20 -315l-53 -633h-150z" />
<glyph unicode="N" horiz-adv-x="1427" d="M137 0v1307h117l584 -654q188 -211 284 -331l4 2q-4 109 -4 325v658h168v-1332h-49l-627 699l-309 360l-4 -2q4 -119 4 -344v-688h-168z" />
<glyph unicode="O" horiz-adv-x="1544" d="M84 655q0 299 206 487.5t482.5 188.5t482 -188.5t205.5 -487.5q0 -201 -98 -358.5t-255 -238.5t-335 -81t-334.5 81t-255 238.5t-98.5 358.5zM254 651.5q0 -237.5 154.5 -385t363.5 -147.5q207 0 362.5 147.5t155.5 385t-155.5 384t-362.5 146.5q-209 0 -363.5 -146.5 t-154.5 -384z" />
<glyph unicode="P" horiz-adv-x="997" d="M137 0v1307h398q156 0 272.5 -96.5t116.5 -264.5t-117 -264t-270 -96h-234v-586h-166zM303 725h205q102 0 173 57.5t71 159.5t-72 160.5t-174 58.5h-203v-436z" />
<glyph unicode="Q" horiz-adv-x="1544" d="M84 655q0 299 206 487.5t482.5 188.5t482 -188.5t205.5 -487.5q0 -252 -152.5 -430t-377.5 -209v-4q74 -12 180 -63q158 -76 281 -76q80 0 151 29l-108 -152q-35 -10 -76 -10q-172 0 -365 100q-98 53 -288 140q-258 23 -439.5 207.5t-181.5 467.5zM254 651.5 q0 -237.5 154.5 -385t363.5 -147.5q207 0 362.5 147.5t155.5 385t-155.5 384t-362.5 146.5q-209 0 -363.5 -146.5t-154.5 -384z" />
<glyph unicode="R" horiz-adv-x="1052" d="M137 0v1307h377q156 0 272.5 -96.5t116.5 -264.5q0 -123 -67.5 -210t-176.5 -124l453 -612h-209l-422 586h-178v-586h-166zM303 725h184q102 0 173 57.5t71 159.5t-71.5 160.5t-174.5 58.5h-182v-436z" />
<glyph unicode="S" horiz-adv-x="964" d="M94 254q160 -125 365 -125q117 0 189.5 60.5t72.5 158.5q0 96 -58.5 156.5t-187.5 105.5q-174 59 -259 148.5t-85 224.5q0 137 102.5 236.5t288.5 99.5q168 0 277 -74l-33 -135q-106 76 -248 76q-106 0 -169.5 -56.5t-63.5 -134t54 -131t169 -94.5q186 -68 279.5 -159 t93.5 -249q0 -170 -115 -271t-313 -101q-205 0 -338 94z" />
<glyph unicode="T" horiz-adv-x="1060" d="M12 1161v146h1037v-146h-435v-1161h-168v1161h-434z" />
<glyph unicode="U" horiz-adv-x="1316" d="M137 457v850h168v-834q0 -162 92 -254t262 -92q172 0 264.5 92t92.5 254v834h164v-850q0 -221 -144.5 -350.5t-376 -129.5t-377 129.5t-145.5 350.5z" />
<glyph unicode="V" horiz-adv-x="1189" d="M47 1307h176l260 -664q55 -139 119 -334h4q74 221 119 334l258 664h160l-520 -1327h-54z" />
<glyph unicode="W" horiz-adv-x="1875" d="M47 1307h170l223 -648q90 -264 105 -321h4q25 86 102 321l221 648h146l225 -648q49 -143 98 -321h5q16 66 104 321l225 648h154l-463 -1327h-57l-250 727q-92 272 -119 364h-4q-37 -131 -117 -364l-252 -727h-59z" />
<glyph unicode="X" horiz-adv-x="1208" d="M84 0l420 664l-400 643h191l213 -342q63 -102 100 -170h4q55 102 99 170l215 342h180l-399 -633l417 -674h-190l-223 360q-57 90 -107 181h-4q-43 -78 -108 -181l-230 -360h-178z" />
<glyph unicode="Y" horiz-adv-x="1259" d="M47 1307h184l273 -383l129 -193h4q57 92 129 193l272 383h174l-501 -705v-602h-164v602z" />
<glyph unicode="Z" horiz-adv-x="1079" d="M84 0v41l432 747l223 371l-2 2h-612v146h846v-41l-436 -750l-222 -369l2 -2h680v-145h-911z" />
<glyph unicode="[" horiz-adv-x="567" d="M137 -446v1880h418v-134h-262v-1613h262v-133h-418z" />
<glyph unicode="\" horiz-adv-x="958" d="M78 1311l117 61l837 -1640l-119 -62z" />
<glyph unicode="]" horiz-adv-x="567" d="M12 -313h264v1613h-264v134h418v-1880h-418v133z" />
<glyph unicode="^" d="M180 1096q164 127 277 284q25 35 55.5 35t54.5 -35q106 -150 277 -280l-109 -47q-139 86 -231 172q-102 -96 -225 -172z" />
<glyph unicode="_" d="M-2 -338h1030v-135h-1030v135z" />
<glyph unicode="`" d="M195 1376.5q0 18.5 31.5 50t52.5 31.5q27 0 51 -35q106 -152 276 -284l-100 -43q-178 111 -289 235q-22 27 -22 45.5z" />
<glyph unicode="a" horiz-adv-x="909" d="M72 281q0 145 85 223t218 92l233 22v82q0 86 -54 137.5t-153 51.5q-139 0 -247 -76l-31 127q111 82 287 82q162 0 260 -87t98 -249v-440q0 -145 117 -172l-109 -99q-53 12 -95 54.5t-50 109.5q-25 -78 -96.5 -120t-163.5 -42q-133 0 -216 83.5t-83 220.5zM223 283 q0 -78 47 -127.5t121 -49.5q88 0 152.5 65t64.5 171v158l-198 -21q-88 -8 -137.5 -60t-49.5 -136z" />
<glyph unicode="b" horiz-adv-x="1095" d="M125 109v1247h160v-453q109 117 272 117q205 0 336 -137.5t131 -380.5q0 -250 -135 -387.5t-373 -137.5q-225 1 -391 132zM285 193q90 -74 221 -74q164 0 259 95t95 281.5t-90 284t-238 97.5q-158 0 -247 -125v-559z" />
<glyph unicode="c" horiz-adv-x="923" d="M72 498q0 242 140 379t349 137q164 0 291 -78l-33 -145q-105 77 -238 77h-3q-150 0 -244 -97t-94 -275q0 -176 95 -273.5t247 -97.5q135 0 241 63l-18 -149q-94 -53 -242 -53q-209 0 -350 136t-141 376z" />
<glyph unicode="d" horiz-adv-x="1101" d="M72 500q0 240 134 381t341 141q82 0 156.5 -28.5t109.5 -67.5v430h164v-1356h-152v115h-2q-39 -59 -114.5 -98.5t-176.5 -39.5q-190 0 -325 138.5t-135 384.5zM236 495.5q0 -180.5 92 -278.5t239 -98q80 0 144.5 37t101.5 90v514q-94 117 -246 117q-145 0 -238 -100.5 t-93 -281z" />
<glyph unicode="e" horiz-adv-x="995" d="M72 500q0 233 136 377.5t320.5 144.5t292 -110.5t107.5 -278.5q0 -39 -6 -70l-86 -90h-609q6 -174 100.5 -262t262.5 -88q160 0 268 82l-18 -152q-107 -67 -268 -67h-5q-215 0 -355 133t-140 381zM238 604h530q2 10 2 33q0 106 -63.5 180t-174.5 74q-100 0 -184.5 -77 t-109.5 -210z" />
<glyph unicode="f" horiz-adv-x="692" d="M33 864v135h157v25q0 190 105.5 282.5t284.5 92.5q119 0 180 -27l-35 -135q-59 25 -131 25q-119 0 -180.5 -58.5t-61.5 -189.5v-15h305l-32 -135h-271v-864h-164v864h-157z" />
<glyph unicode="g" horiz-adv-x="948" d="M61 -39q0 109 61.5 178.5t145.5 83.5l-98 99q4 119 133 143q-74 29 -125 96.5t-51 157.5q0 133 97.5 218t250.5 85q72 0 121 -16q59 -16 123 -17q84 0 143 33l33 -123q-52 -31 -111 -31q-16 0 -32 2q70 -57 69 -155q0 -121 -91 -208t-238 -89q-141 0 -142 -62 q0 -37 64 -57l227 -76q254 -80 254 -284q0 -125 -116.5 -209t-299.5 -84q-184 0 -301 90t-117 225zM211 -39q0 -78 71.5 -131t194.5 -53q119 0 191.5 49t72.5 113q0 109 -153 155l-189 58q-80 -2 -134 -56.5t-54 -134.5zM270 721q0 -76 58.5 -126t146.5 -50q82 0 140.5 51 t58.5 125t-57.5 125t-141.5 51q-88 0 -146.5 -51t-58.5 -125z" />
<glyph unicode="h" horiz-adv-x="1038" d="M125 0v1356h162v-475h2q29 61 102.5 101t186.5 40q156 0 251 -86t95 -234v-702h-162v676q0 90 -62.5 147.5t-171 57.5t-175 -57.5t-66.5 -147.5v-676h-162z" />
<glyph unicode="i" horiz-adv-x="438" d="M115 1208q0 27 40 66t64 39q27 0 66 -39t39 -66q0 -25 -39 -64.5t-66 -39.5q-25 0 -64.5 39.5t-39.5 64.5zM135 0v999h166v-999h-166z" />
<glyph unicode="j" horiz-adv-x="438" d="M-63 -240q199 47 198 289v950h166v-960q0 -147 -74.5 -248.5t-187.5 -132.5zM115 1208q0 27 40 66t64 39q27 0 66 -39t39 -66q0 -25 -39 -64.5t-66 -39.5q-25 0 -64.5 39.5t-39.5 64.5z" />
<glyph unicode="k" horiz-adv-x="909" d="M125 0v1356h162v-819h4l395 462h188l-419 -487l442 -512h-205l-403 469h-2v-469h-162z" />
<glyph unicode="l" horiz-adv-x="454" d="M125 223v1133h162v-1114q0 -61 32.5 -102.5t86.5 -51.5l-87 -119q-86 16 -140 77.5t-54 176.5z" />
<glyph unicode="m" horiz-adv-x="1576" d="M115 0v999h151v-125h2q55 147 279 148q100 0 176 -40t106 -118q25 70 106 114t191 44q154 0 245 -82t91 -225v-715h-164v690q0 88 -51 139.5t-157.5 51.5t-163 -52.5t-56.5 -138.5v-690h-163v690q0 88 -50.5 139.5t-157 51.5t-163.5 -52.5t-57 -138.5v-690h-164z" />
<glyph unicode="n" horiz-adv-x="1030" d="M115 0v999h151v-137h2q25 72 100.5 116t198.5 44q156 0 252 -86t96 -234v-702h-163v676q0 90 -62.5 147.5t-171 57.5t-174 -57.5t-65.5 -147.5v-676h-164z" />
<glyph unicode="o" horiz-adv-x="1126" d="M72 499.5q0 241.5 139 382t354 140.5q213 0 351.5 -140.5t138.5 -382t-138.5 -382t-351.5 -140.5q-215 0 -354 140.5t-139 382zM236 495.5q0 -182.5 93 -279.5t236 -97q141 0 233.5 97t92.5 279.5t-92 282t-234 99.5q-143 0 -236 -99.5t-93 -282z" />
<glyph unicode="p" horiz-adv-x="1091" d="M115 -330v1329h149v-112h2q37 59 115 97t178 38q190 0 325.5 -136t135.5 -384q0 -244 -134 -384.5t-343 -140.5q-82 0 -157 29t-110 68v-404h-161zM276 231q89 -112 245 -112h3q147 0 239.5 98t92.5 279q0 182 -92 281.5t-240 99.5q-158 0 -248 -127v-519z" />
<glyph unicode="q" horiz-adv-x="1085" d="M72 496q0 240 136 383t361 143q162 0 287 -86l66 74h51v-1340h-164v400q-35 -37 -105.5 -63.5t-154.5 -26.5q-207 0 -342 140t-135 376zM236 492q0 -178 94 -275.5t241 -97.5q150 0 238 106v568q-33 31 -99.5 57.5t-125.5 26.5q-156 0 -252 -101.5t-96 -283.5z" />
<glyph unicode="r" horiz-adv-x="667" d="M115 0v999h161v-213h3q23 102 98.5 165t185.5 63q51 0 86 -13l-39 -172q-33 12 -75 13q-111 0 -183.5 -76t-72.5 -229v-537h-164z" />
<glyph unicode="s" horiz-adv-x="759" d="M82 238q123 -113 278 -113q72 0 119 42t47 105q0 39 -13 68t-44 51.5t-54.5 34.5t-70.5 33q-55 25 -90 44t-74 53t-57.5 81t-18.5 108q0 125 83 200t212 75q150 0 234 -62l-33 -135q-88 66 -197 66q-61 0 -101 -41t-40 -98q0 -59 37 -94t109 -68l82 -36q30 -13 74 -42 t66.5 -58.5t40 -75.5t17.5 -102q0 -127 -87 -206.5t-236 -79.5q-164 0 -263 75z" />
<glyph unicode="t" horiz-adv-x="729" d="M33 864v135h176v197l162 74v-271h331l-30 -135h-301v-600q0 -141 143 -141q55 0 90 18l-16 -131q-35 -20 -111 -20q-119 0 -193.5 67.5t-74.5 186.5v620h-176z" />
<glyph unicode="u" horiz-adv-x="1030" d="M115 297v702h164v-675q0 -90 61 -146.5t169.5 -56.5t175.5 57.5t67 147.5v673h163v-999h-153v139h-2q-25 -72 -100.5 -117t-196.5 -45q-156 0 -252 86.5t-96 233.5z" />
<glyph unicode="v" horiz-adv-x="952" d="M47 999h162l190 -520q43 -117 80 -231h4l82 233l187 518h153l-385 -1017h-90z" />
<glyph unicode="w" horiz-adv-x="1449" d="M47 999h156l159 -512q61 -195 70 -229h4q6 23 70 229l160 512h125l161 -512q63 -205 70 -229h4l70 229l161 512h146l-338 -1017h-86l-174 532q-35 104 -80 262h-4q-33 -125 -78 -260l-174 -534h-84z" />
<glyph unicode="x" horiz-adv-x="915" d="M72 0l293 514l-279 485h174l129 -223q47 -78 76 -133h2q23 45 72 131l125 225h165l-278 -489l293 -510h-174l-154 268q-37 59 -67 117h-3l-63 -117l-147 -268h-164z" />
<glyph unicode="y" horiz-adv-x="966" d="M47 999h166l186 -516l86 -237h4l47 121q32 82 44 116l186 516h156l-342 -913q-68 -180 -151 -280.5t-208 -151.5l-104 104q104 45 168.5 112t117.5 185z" />
<glyph unicode="z" horiz-adv-x="868" d="M72 0v35l334 592q82 145 141 235l-2 2h-439v135h658v-34l-313 -553q-53 -94 -164 -275l2 -2h508v-135h-725z" />
<glyph unicode="{" horiz-adv-x="622" d="M12 492q186 119 187 436q0 227 92 365.5t289 138.5l30 -123q-256 0 -256 -387q0 -283 -159 -430q160 -143 159 -431q0 -387 256 -387l-30 -123q-197 0 -289 138.5t-92 367.5q-1 320 -187 435z" />
<glyph unicode="|" horiz-adv-x="411" d="M137 -473v1931h137v-1931h-137z" />
<glyph unicode="}" horiz-adv-x="622" d="M12 -326q256 0 256 387q0 287 160 431q-160 147 -160 430q0 387 -256 387l31 123q197 0 289 -138.5t92 -365.5q0 -317 186 -436q-186 -115 -186 -435q0 -229 -92 -367.5t-289 -138.5z" />
<glyph unicode="~" horiz-adv-x="753" d="M86 465q39 70 99.5 136.5t95.5 66.5q29 0 96 -39t82 -39q29 0 114 106l95 -41q-39 -70 -99.5 -136t-95.5 -66q-29 0 -97.5 38.5t-82.5 38.5q-10 0 -21.5 -7t-27 -22.5t-23.5 -24.5t-24 -30l-17 -22z" />
<glyph unicode="&#xa1;" horiz-adv-x="518" d="M139 1214.5q0 26.5 43 69.5t70 43t70 -43t43 -69.5t-43 -68.5t-70 -42t-70 42t-43 68.5zM164 0l29 952l131 -32l26 -920h-186z" />
<glyph unicode="&#xa2;" horiz-adv-x="929" d="M74 647.5q0 198.5 129 327.5t315 145v187h98v-185q137 -12 240 -67l-31 -140q-113 72 -250 72q-145 0 -247.5 -96t-102.5 -246q0 -152 102.5 -248t250.5 -96q137 0 249 61l-16 -143q-80 -39 -195 -45v-174h-98v174q-186 16 -315 145.5t-129 328z" />
<glyph unicode="&#xa3;" horiz-adv-x="886" d="M27 610v97h161v223q0 190 103.5 291.5t281.5 101.5q109 0 179 -29l-33 -133q-68 29 -135 29q-238 0 -238 -268v-215h252l-23 -97h-229v-114q0 -254 -78 -365q76 29 221 29q178 0 314 -45l-31 -138q-129 51 -301 52q-170 0 -305 -52l-78 91q100 168 100 440v102h-161z" />
<glyph unicode="&#xa5;" horiz-adv-x="1040" d="M47 1307h174l209 -406q29 -57 96 -205h4q53 117 99 205l209 406h155l-356 -693h254v-96h-289v-518h-164v518h-288v96h253z" />
<glyph unicode="&#xa8;" d="M258 1200.5q0 22.5 37 58t59.5 35.5t58.5 -35.5t36 -58t-36 -59.5t-58.5 -37t-59.5 37t-37 59.5zM575 1200.5q0 22.5 36 58t59 35.5q25 0 60.5 -35.5t35.5 -58t-36 -59.5t-60 -37q-23 0 -59 37t-36 59.5z" />
<glyph unicode="&#xa9;" horiz-adv-x="1253" d="M84 512q0 236 156.5 387.5t386 151.5t385 -151.5t155.5 -387.5q0 -233 -155.5 -386t-385 -153t-386 153t-156.5 386zM180 512q0 -193 126 -322t321 -129q193 0 318.5 129t125.5 322q0 195 -125 323t-319.5 128t-320.5 -128t-126 -323zM352 518q0 129 88 210t211 81 q113 0 176 -47l-22 -109q-61 45 -148 45q-80 0 -133 -51t-53 -131t54.5 -131t131.5 -51q82 0 150 39l-12 -111q-59 -35 -144 -35q-123 0 -211 80t-88 211z" />
<glyph unicode="&#xab;" horiz-adv-x="798" d="M47 524q0 25 29 45q135 98 241 246l25 -59q-53 -125 -123 -232q70 -106 123 -231l-25 -60q-106 147 -241 246q-29 18 -29 45zM422 524.5q0 26.5 29 44.5q135 98 241 246l25 -59q-63 -143 -125 -232q61 -88 125 -231l-25 -60q-106 147 -241 246q-29 19 -29 45.5z" />
<glyph unicode="&#xad;" horiz-adv-x="688" d="M86 561v133h518v-133h-518z" />
<glyph unicode="&#xae;" horiz-adv-x="954" d="M74 932q0 174 115.5 286.5t287.5 112.5q170 0 287 -112.5t117 -286.5t-117 -287t-287 -113q-172 0 -287.5 113t-115.5 287zM154 931.5q0 -143.5 92 -234.5t231 -91t230.5 91t91.5 234.5t-92.5 234.5t-229.5 91q-139 0 -231 -91t-92 -234.5zM332 686v490h149 q63 0 110.5 -41t47.5 -105q0 -86 -74 -125l119 -172l-72 -47l-131 197h-63v-197h-86zM418 958h51q39 0 61.5 19.5t22.5 52.5t-22.5 51.5t-61.5 18.5h-51v-142z" />
<glyph unicode="&#xb0;" horiz-adv-x="612" d="M84 1112q0 90 65.5 154.5t155.5 64.5t156.5 -64.5t66.5 -154.5t-66.5 -154.5t-156.5 -64.5t-155.5 64.5t-65.5 154.5zM199 1112q0 -49 29.5 -81t76.5 -32t77 32t30 81t-30 81t-77 32t-76.5 -32t-29.5 -81z" />
<glyph unicode="&#xb1;" horiz-adv-x="1699" d="M33 864v135h157v25q0 190 105.5 282.5t284.5 92.5q180 0 311 -96q98 96 278 96q209 0 363 -133v-1024q0 -61 32.5 -102.5t88.5 -51.5l-88 -119q-84 16 -139.5 78t-55.5 176v981q-78 59 -190 60q-238 0 -238 -250v-15h215v-135h-213v-864h-164v864h-426v-864h-164v864 h-157zM352 999h430v25q0 80 33 158q-100 82 -225 82q-238 0 -238 -250v-15z" />
<glyph unicode="&#xb4;" d="M414 1135q168 133 278 290q23 33 49 33q20 0 51 -30.5t31 -49.5q0 -14 -24 -43q-115 -131 -291 -239z" />
<glyph unicode="&#xb6;" horiz-adv-x="800" d="M74 961q0 168 115.5 262t281.5 94h317v-129h-139v-1290q0 -139 -76.5 -241.5t-183.5 -129.5l-102 100q203 47 202 283v696h-20q-164 0 -279.5 94.5t-115.5 260.5z" />
<glyph unicode="&#xb7;" horiz-adv-x="393" d="M84 555q0 27 43 69t69.5 42t69.5 -42t43 -69t-42 -70t-70.5 -43t-70.5 43t-42 70z" />
<glyph unicode="&#xb8;" d="M324 -418l20 92q57 -45 137 -45q43 0 75 29t32 76q0 45 -33 73.5t-63 28.5q-66 0 -67 48q0 10 3 22l25 96h71l-18 -63q74 -2 134 -58.5t60 -142.5q0 -96 -65.5 -150.5t-153.5 -54.5q-85 0 -157 49z" />
<glyph unicode="&#xbb;" horiz-adv-x="798" d="M84 293q59 137 123 231q-63 94 -123 232l25 59q119 -156 239 -246q31 -18 31 -44.5t-31 -45.5q-121 -90 -239 -246zM459 293q59 137 123 231q-63 94 -123 232l22 59q115 -152 242 -246q29 -18 29 -44.5t-29 -45.5q-127 -94 -242 -246z" />
<glyph unicode="&#xbf;" horiz-adv-x="749" d="M78 301q0 86 44 156.5t130 161.5q94 96 94 210q0 72 -12 127l143 -32q14 -63 15 -109q0 -178 -121 -299q-66 -68 -95.5 -116t-29.5 -113q0 -63 51 -114.5t133 -51.5q117 0 227 72l33 -142q-111 -72 -258 -71q-156 0 -255 85.5t-99 235.5zM289 1219q0 29 42 70.5 t70.5 41.5t70.5 -43t42 -69.5t-43 -68.5t-70 -42q-29 0 -70.5 42t-41.5 69z" />
<glyph unicode="&#xf7;" horiz-adv-x="937" d="M86 500v135h766v-135h-766zM371 315q0 23 36.5 60t61.5 37t61.5 -37t36.5 -60q0 -25 -36.5 -61.5t-61.5 -36.5t-61.5 36.5t-36.5 61.5zM371 821q0 23 36.5 60t61.5 37t61.5 -37t36.5 -60q0 -25 -36.5 -61.5t-61.5 -36.5t-61.5 36.5t-36.5 61.5z" />
<glyph unicode="&#x2c6;" d="M184 1137q170 131 277 286q25 35 51.5 35t50.5 -35q104 -152 277 -284l-99 -43q-139 86 -235 178q-100 -94 -230 -178z" />
<glyph unicode="&#x2dc;" d="M182 1141q49 84 117 160.5t111 76.5q35 0 115.5 -50t97.5 -50q43 0 141 129l98 -43q-49 -84 -116.5 -161t-110.5 -77q-35 0 -115 50.5t-98 50.5q-43 0 -139 -129z" />
<glyph unicode="&#x2000;" horiz-adv-x="754" />
<glyph unicode="&#x2001;" horiz-adv-x="1509" />
<glyph unicode="&#x2002;" horiz-adv-x="754" />
<glyph unicode="&#x2003;" horiz-adv-x="1509" />
<glyph unicode="&#x2004;" horiz-adv-x="503" />
<glyph unicode="&#x2005;" horiz-adv-x="377" />
<glyph unicode="&#x2006;" horiz-adv-x="251" />
<glyph unicode="&#x2007;" horiz-adv-x="251" />
<glyph unicode="&#x2008;" horiz-adv-x="188" />
<glyph unicode="&#x2009;" horiz-adv-x="301" />
<glyph unicode="&#x200a;" horiz-adv-x="83" />
<glyph unicode="&#x2010;" horiz-adv-x="688" d="M86 561v133h518v-133h-518z" />
<glyph unicode="&#x2011;" horiz-adv-x="688" d="M86 561v133h518v-133h-518z" />
<glyph unicode="&#x2012;" horiz-adv-x="688" d="M86 561v133h518v-133h-518z" />
<glyph unicode="&#x2013;" d="M0 469v111h1028v-111h-1028z" />
<glyph unicode="&#x2014;" horiz-adv-x="2048" d="M0 469v111h2052v-111h-2052z" />
<glyph unicode="&#x2018;" horiz-adv-x="397" d="M84 1047q0 135 145 284l62 -10q-74 -92 -80 -178q29 -4 64.5 -39t35.5 -57q0 -31 -43 -72t-71 -41q-27 0 -70 41t-43 72z" />
<glyph unicode="&#x2019;" horiz-adv-x="397" d="M84 1219q0 31 43 71.5t69.5 40.5t70.5 -41t44 -71q0 -135 -145 -285l-62 10q70 86 80 176q-29 6 -64.5 41t-35.5 58z" />
<glyph unicode="&#x201a;" horiz-adv-x="395" d="M84 98q0 29 43 70t69.5 41t70.5 -41t44 -70q0 -139 -145 -284l-62 8q70 86 80 178q-29 4 -64.5 39.5t-35.5 58.5z" />
<glyph unicode="&#x201c;" horiz-adv-x="741" d="M84 1047q0 135 145 284l62 -10q-74 -92 -80 -178q29 -4 64.5 -39t35.5 -57q0 -31 -43 -72t-71 -41q-27 0 -70 41t-43 72zM430 1047q0 137 148 284l59 -10q-72 -90 -80 -178q31 -4 66.5 -39t35.5 -57q0 -31 -44 -72t-70.5 -41t-70.5 41t-44 72z" />
<glyph unicode="&#x201d;" horiz-adv-x="741" d="M84 1219q0 31 43 71.5t69.5 40.5t70.5 -41t44 -71q0 -135 -145 -285l-62 10q70 86 80 176q-29 6 -64.5 41t-35.5 58zM430 1219q0 31 44 71.5t70.5 40.5t70.5 -41t44 -71q0 -137 -147 -285l-59 10q72 90 79 176q-31 6 -66.5 41t-35.5 58z" />
<glyph unicode="&#x201e;" horiz-adv-x="741" d="M84 98q0 29 43 70t69.5 41t70.5 -41t44 -70q0 -139 -145 -284l-62 8q70 86 80 178q-29 4 -64.5 39.5t-35.5 58.5zM430 98q0 29 44 70t70.5 41t70.5 -41t44 -70q0 -141 -147 -284l-59 8q72 90 79 178q-31 4 -66.5 39.5t-35.5 58.5z" />
<glyph unicode="&#x2022;" horiz-adv-x="745" d="M86 567q0 125 83 205t206 80t203.5 -80t80.5 -205q0 -123 -80.5 -202.5t-203.5 -79.5t-206 79.5t-83 202.5z" />
<glyph unicode="&#x2026;" horiz-adv-x="1183" d="M84 92.5q0 26.5 43 68.5t69.5 42t69.5 -42t43 -68.5t-42 -69.5t-70.5 -43t-70.5 43t-42 69.5zM479 92q0 27 42 69t71 42q27 0 70 -42t43 -68.5t-43.5 -69.5t-69.5 -43q-29 0 -71 41.5t-42 70.5zM872 92.5q0 26.5 43 68.5t70 42q29 0 72 -42t43 -69q0 -29 -43 -70.5 t-72 -41.5q-27 0 -70 43t-43 69.5z" />
<glyph unicode="&#x202f;" horiz-adv-x="301" />
<glyph unicode="&#x2039;" horiz-adv-x="425" d="M47 524q0 25 29 45q135 98 241 246l25 -59q-53 -125 -123 -232q70 -106 123 -231l-25 -60q-106 147 -241 246q-29 18 -29 45z" />
<glyph unicode="&#x203a;" horiz-adv-x="425" d="M84 293q59 137 123 231q-63 94 -123 232l25 59q119 -156 239 -246q31 -18 31 -44.5t-31 -45.5q-121 -90 -239 -246z" />
<glyph unicode="&#x205f;" horiz-adv-x="377" />
<glyph unicode="&#x20ac;" horiz-adv-x="1007" d="M29 496v94h159q0 10 -1 30.5t-1 33t1 37t1 34.5h-159v94h170q37 238 171 371t312 133q139 0 242 -57l-29 -133q-84 57 -203 57q-123 0 -216 -96.5t-124 -274.5h377l-18 -94h-369q-2 -23 -2 -74q0 -41 2 -61h367l-19 -92h-338q29 -184 125 -282.5t217 -98.5q125 0 207 51 l-16 -141q-66 -43 -203 -43q-182 0 -316.5 134t-168.5 378h-168z" />
<glyph unicode="&#x2122;" horiz-adv-x="851" d="M43 1247v60h289v-60h-113v-319h-63v319h-113zM356 928l31 379h45l137 -273l133 273h46l30 -379h-65l-19 229l-119 -231h-22l-115 229l-18 -227h-64z" />
<glyph unicode="&#xe000;" horiz-adv-x="1000" d="M0 0v1000h1000v-1000h-1000z" />
</font>
</defs>
</svg>
